<svg width="16" height="16" viewBox="0 0 16 16" xmlns="http://www.w3.org/2000/svg">
    <defs>
        <!-- 中心点渐变 -->
        <radialGradient id="centerGradient" cx="50%" cy="50%" r="50%">
            <stop offset="0%" style="stop-color:#000000;stop-opacity:1" />
            <stop offset="70%" style="stop-color:#333333;stop-opacity:1" />
            <stop offset="100%" style="stop-color:#666666;stop-opacity:1" />
        </radialGradient>
        
        <!-- 连接线渐变 -->
        <linearGradient id="lineGradient" x1="0%" y1="0%" x2="100%" y2="0%">
            <stop offset="0%" style="stop-color:#0066FF;stop-opacity:1" />
            <stop offset="50%" style="stop-color:#00FFFF;stop-opacity:1" />
            <stop offset="100%" style="stop-color:#0066FF;stop-opacity:1" />
        </linearGradient>
    </defs>
    
    <!-- 背景圆形 -->
    <circle cx="8" cy="8" r="7" fill="#ffffff" stroke="#e0e0e0" stroke-width="0.5"/>
    
    <!-- 连接线组 -->
    <g stroke="url(#lineGradient)" stroke-width="0.8" fill="none">
        <line x1="8" y1="8" x2="8" y2="3" />
        <line x1="8" y1="8" x2="11.5" y2="4.5" />
        <line x1="8" y1="8" x2="13" y2="8" />
        <line x1="8" y1="8" x2="11.5" y2="11.5" />
        <line x1="8" y1="8" x2="8" y2="13" />
        <line x1="8" y1="8" x2="4.5" y2="11.5" />
        <line x1="8" y1="8" x2="3" y2="8" />
        <line x1="8" y1="8" x2="4.5" y2="4.5" />
    </g>
    
    <!-- 墨点组 -->
    <g>
        <!-- 外围墨点 -->
        <circle cx="8" cy="3" r="0.8" fill="#333333" />
        <circle cx="11.5" cy="4.5" r="0.8" fill="#333333" />
        <circle cx="13" cy="8" r="0.8" fill="#333333" />
        <circle cx="11.5" cy="11.5" r="0.8" fill="#333333" />
        <circle cx="8" cy="13" r="0.8" fill="#333333" />
        <circle cx="4.5" cy="11.5" r="0.8" fill="#333333" />
        <circle cx="3" cy="8" r="0.8" fill="#333333" />
        <circle cx="4.5" cy="4.5" r="0.8" fill="#333333" />
        
        <!-- 中心墨点 -->
        <circle cx="8" cy="8" r="1.2" fill="url(#centerGradient)" />
    </g>
</svg>
