<svg viewBox="0 0 32 32" xmlns="http://www.w3.org/2000/svg">
    <defs>
        <!-- 中心点渐变 -->
        <radialGradient id="centerGradient" cx="50%" cy="50%" r="50%">
            <stop offset="0%" style="stop-color:#000000;stop-opacity:1" />
            <stop offset="70%" style="stop-color:#333333;stop-opacity:1" />
            <stop offset="100%" style="stop-color:#666666;stop-opacity:1" />
        </radialGradient>
        
        <!-- 连接线渐变 -->
        <linearGradient id="lineGradient" x1="0%" y1="0%" x2="100%" y2="0%">
            <stop offset="0%" style="stop-color:#0066FF;stop-opacity:1" />
            <stop offset="50%" style="stop-color:#00FFFF;stop-opacity:1" />
            <stop offset="100%" style="stop-color:#0066FF;stop-opacity:1" />
        </linearGradient>
    </defs>
    
    <!-- 背景圆形 -->
    <circle cx="16" cy="16" r="15" fill="#ffffff" stroke="#e0e0e0" stroke-width="1"/>
    
    <!-- 连接线组 -->
    <g stroke="url(#lineGradient)" stroke-width="1.5" fill="none">
        <line x1="16" y1="16" x2="16" y2="6" />
        <line x1="16" y1="16" x2="22.5" y2="9.5" />
        <line x1="16" y1="16" x2="26" y2="16" />
        <line x1="16" y1="16" x2="22.5" y2="22.5" />
        <line x1="16" y1="16" x2="16" y2="26" />
        <line x1="16" y1="16" x2="9.5" y2="22.5" />
        <line x1="16" y1="16" x2="6" y2="16" />
        <line x1="16" y1="16" x2="9.5" y2="9.5" />
    </g>
    
    <!-- 墨点组 -->
    <g>
        <!-- 外围墨点 -->
        <circle cx="16" cy="6" r="1.5" fill="#333333" />
        <circle cx="22.5" cy="9.5" r="1.5" fill="#333333" />
        <circle cx="26" cy="16" r="1.5" fill="#333333" />
        <circle cx="22.5" cy="22.5" r="1.5" fill="#333333" />
        <circle cx="16" cy="26" r="1.5" fill="#333333" />
        <circle cx="9.5" cy="22.5" r="1.5" fill="#333333" />
        <circle cx="6" cy="16" r="1.5" fill="#333333" />
        <circle cx="9.5" cy="9.5" r="1.5" fill="#333333" />
        
        <!-- 中心墨点 -->
        <circle cx="16" cy="16" r="2.5" fill="url(#centerGradient)" />
    </g>
</svg>
